<?xml version="1.0" standalone="no"?><!DOCTYPE svg PUBLIC "-//W3C//DTD SVG 1.1//EN" "http://www.w3.org/Graphics/SVG/1.1/DTD/svg11.dtd"><svg class="icon" width="200px" height="200.00px" viewBox="0 0 1024 1024" version="1.1" xmlns="http://www.w3.org/2000/svg"><path d="M253.778 826.889c-57.782-5.291-53.328-44.672-53.328-44.672 3.255-53.307 45.577-44.408 112.44-46.309l-0.717-492.803 502.897 0.202 0.572 583.741-561.864-0.159z" fill="#D1D9E0" /><path d="M150.413 767.657a12 12 0 0 1-12.003-12.002l0.035-556.178c0-1.073 0.144-2.141 0.428-3.176 0.227-0.826 5.772-20.421 24.603-36.729 30.714-26.597 72.191-24.366 101.58-17.81a12 12 0 0 1 9.387 11.698l0.584 493.333c0.008 6.628-5.358 12.007-11.986 12.015h-0.014c-6.622 0.001-11.992-5.363-12-11.985l-0.572-483.471c-29.885-4.991-53.535-0.425-70.391 13.618-11.342 9.45-16.218 20.675-17.619 24.455l-0.033 515.748c17.887-18.672 38.297-27.524 54.571-31.689 25.694-6.575 46.631-3.073 47.509-2.921 6.53 1.133 10.906 7.344 9.774 13.874-1.13 6.516-7.316 10.886-13.831 9.781-0.172-0.029-17.504-2.801-38.377 2.744-27.172 7.218-47.645 24.688-60.851 51.929a12 12 0 0 1-10.794 6.766z"  /><path d="M421.176 340.307m-27.5 0a27.5 27.5 0 1 0 55 0 27.5 27.5 0 1 0-55 0Z"  /><path d="M421.176 702.188c-15.188 0-27.5 12.314-27.5 27.504 0 15.186 12.312 27.496 27.5 27.496s27.5-12.311 27.5-27.496c0-15.19-12.312-27.504-27.5-27.504z"  /><path d="M421.177 536.588m-27.5 0a27.5 27.5 0 1 0 55 0 27.5 27.5 0 1 0-55 0Z"  /><path d="M628.027 744.664c-6.627 0-12-5.373-12-12s5.373-12 12-12c47.341 0 85.855-38.515 85.855-85.855s-38.515-85.854-85.855-85.854c-6.627 0-12-5.373-12-12s5.373-12 12-12c60.574 0 109.855 49.28 109.855 109.854 0.001 60.574-49.28 109.855-109.855 109.855zM632.361 350.809h-210c-6.627 0-12-5.373-12-12s5.373-12 12-12h210c6.628 0 12 5.373 12 12s-5.372 12-12 12z"  /><path d="M632.361 547.809h-210c-6.627 0-12-5.372-12-12s5.373-12 12-12h210c6.628 0 12 5.372 12 12s-5.372 12-12 12zM632.361 744.809h-210c-6.627 0-12-5.372-12-12s5.373-12 12-12h210c6.628 0 12 5.372 12 12s-5.372 12-12 12z"  /><path d="M628.027 546.664c-6.627 0-12-5.373-12-12s5.373-12 12-12c47.341 0 85.855-38.515 85.855-85.855s-38.515-85.854-85.855-85.854c-6.627 0-12-5.373-12-12s5.373-12 12-12c60.574 0 109.855 49.28 109.855 109.854 0.001 60.574-49.28 109.855-109.855 109.855z"  /><path d="M498.176 635.807m-20 0a20 20 0 1 0 40 0 20 20 0 1 0-40 0Z"  /><path d="M616.176 635.807m-20 0a20 20 0 1 0 40 0 20 20 0 1 0-40 0Z"  /><path d="M498.176 434.816m-20 0a20 20 0 1 0 40 0 20 20 0 1 0-40 0Z"  /><path d="M616.176 434.816m-20 0a20 20 0 1 0 40 0 20 20 0 1 0-40 0Z"  /><path d="M235.312 884.816c-0.779 0-1.555-0.075-2.319-0.226-36.442-7.175-62.925-23.767-78.712-49.314-26.14-42.301-12.529-93.173-11.937-95.317 1.764-6.39 8.372-10.138 14.761-8.374 6.379 1.762 10.127 8.354 8.381 14.734-0.116 0.428-11.368 43.216 9.301 76.486 11.993 19.306 32.753 32.09 61.715 38.011l614.561-0.075V210.229H267.027c-6.627 0-12-5.373-12-12s5.373-12 12-12h596.036c6.627 0 12 5.373 12 12V872.74c0 6.627-5.372 11.999-11.999 12l-627.752 0.076z"  /><path d="M809.299 163.938s-4.619-18.522-38.523-19.394v-0.042c-0.426 0-0.826 0.016-1.242 0.021-0.418-0.005-0.816-0.021-1.242-0.021v0.042c-33.906 0.871-38.523 19.394-38.523 19.394-14.473 25.914-7.236 69.104-7.236 69.104 20.895 72.949 41.783 70.751 47.002 68.589 5.217 2.162 26.107 4.36 47-68.589-0.002 0 7.236-43.188-7.236-69.104z" fill="#FCFFB6" /><path d="M773.479 312.367c-0.002 0 0 0 0 0-1.335 0-2.661-0.125-3.945-0.367a21.266 21.266 0 0 1-3.945 0.367c-20.396 0-38.117-25.762-52.67-76.572a9.846 9.846 0 0 1-0.249-1.101c-0.316-1.888-7.508-46.208 7.959-74.887 2.219-5.784 11.926-24.014 46.439-25.229 0.721-0.089 1.47-0.078 2.187-0.061l0.279 0.005 0.277-0.005c0.718-0.016 1.474-0.027 2.194 0.061 16.001 0.562 28.562 4.758 37.348 12.479 5.742 5.046 8.201 10.236 9.158 12.885 15.37 28.685 8.201 72.868 7.885 74.753-0.062 0.371-0.146 0.739-0.249 1.101-14.551 50.807-32.273 76.571-52.668 76.571z m-0.215-20.014c0.036 0.006 0.107 0.014 0.215 0.014 0.155 0 15.763-0.702 33.271-61.483 0.7-4.7 5.607-40.962-6.181-62.07-0.531-0.951-0.758-1.281-0.94-2.272-0.629-1.531-5.595-11.396-29.109-12.001-0.17-0.004-0.338-0.013-0.506-0.025l-0.362 0.007a9.049 9.049 0 0 1-0.233 0l-0.364-0.007a9.43 9.43 0 0 1-0.505 0.025c-23.515 0.604-28.479 10.468-29.109 12-0.183 0.992-0.409 1.322-0.94 2.273-11.782 21.098-6.888 57.337-6.182 62.071 17.509 60.78 33.115 61.481 33.271 61.481 0.107 0 0.179-0.008 0.215-0.014a9.995 9.995 0 0 1 7.459 0.001z"  /></svg>